# AST/ASF file generated using VICON BodyLanguage
# -----------------------------------------------
:version 1.10
:name VICON
:units
  mass 1.0
  length 0.45
  angle deg
:documentation
   .ast/.asf automatically generated from VICON data using
   VICON BodyBuilder and BodyLanguage model FoxedUp or BRILLIANT.MOD
:root
   order TX TY TZ RX RY RZ
   axis XYZ
   position 0 0 0  
   orientation 0 0 0 
:bonedata
  begin
     id 1 
     name lhipjoint
     direction 0.440178 -0.822639 0.359871 
     length 2.53113 
     axis 0 0 0  XYZ
  end
  begin
     id 2 
     name lfemur
     direction 0.34202 -0.939693 0  
     length 7.88132  
     axis 0 0 20  XYZ
    dof rx ry rz
    limits (-160.0 20.0)
           (-70.0 70.0)
           (-60.0 70.0)
  end
  begin
     id 3 
     name ltibia
     direction 0.34202 -0.939693 0   
     length 8.43783   
     axis 0 0 20   XYZ
    dof rx
    limits (-10.0 170.0)
  end
  begin
     id 4 
     name lfoot
     direction 0.0886351 -0.243523 0.965837   
     length 2.63414   
     axis -90 7.62852e-016 20   XYZ
    dof rx rz
    limits (-45.0 90.0)
           (-70.0 20.0)
  end
  begin
     id 5 
     name ltoes
     direction 1.53703e-011 -4.21717e-011 1   
     length 1.31427   
     axis -90 7.62852e-016 20   XYZ
    dof rx
    limits (-90.0 20.0)
  end
  begin
     id 6 
     name rhipjoint
     direction -0.399779 -0.839773 0.367367   
     length 2.47948  
     axis 0 0 0  XYZ 
  end
  begin
     id 7 
     name rfemur
     direction -0.34202 -0.939693 0   
     length 7.74806   
     axis 0 0 -20   XYZ
    dof rx ry rz
    limits (-160.0 20.0)
           (-70.0 70.0)
           (-70.0 60.0)
  end
  begin
     id 8 
     name rtibia
     direction -0.34202 -0.939693 0   
     length 8.74432   
     axis 0 0 -20   XYZ
    dof rx
    limits (-10.0 170.0)
 end
 begin
     id 9 
     name rfoot
     direction -0.108514 -0.298139 0.948334   
     length 2.66102  
     axis -90 -7.62852e-016 -20   XYZ
    dof rx rz
    limits (-45.0 90.0)
           (-20.0 70.0)
  end
  begin
     id 10 
     name rtoes
     direction -1.53392e-011 -4.22077e-011 1   
     length 1.31983   
     axis -90 -7.62852e-016 -20   XYZ
    dof rx
    limits (-90.0 20.0)
  end
  begin
     id 11 
     name lowerback
     direction 0.0113257 0.999866 0.0118602   
     length 2.58694   
     axis 0 0 0   XYZ
    dof rx ry rz
    limits (-20.0 45.0)
           (-30.0 30.0)
           (-30.0 30.0)
  end
  begin
     id 12 
     name upperback
     direction -0.0164747 0.995193 -0.0965375   
     length 2.52368   
     axis 0 0 0   XYZ
    dof rx ry rz
    limits (-20.0 45.0)
           (-30.0 30.0)
           (-30.0 30.0)
  end
  begin
     id 13 
     name thorax
     direction -0.0194301 0.99433 -0.104552   
     length 2.56099   
     axis 0 0 0   XYZ
    dof rx ry rz
    limits (-20.0 45.0)
           (-30.0 30.0)
           (-30.0 30.0)
  end
  begin
     id 14 
     name lowerneck
     direction 0.0148543 0.995587 -0.092657   
     length 1.71582   
     axis 0 0 0   XYZ
    dof rx ry rz
    limits (-20.0 45.0)
           (-30.0 30.0)
           (-30.0 30.0)
  end
  begin
     id 15 
     name upperneck
     direction -0.0135467 0.993656 -0.111639   
     length 1.68937   
     axis 0 0 0   XYZ
    dof rx ry rz
    limits (-20.0 45.0)
           (-30.0 30.0)
           (-30.0 30.0)
  end
  begin
     id 16
     name head
     direction -0.00615349 0.999547 -0.029448  
     length 1.7462  
     axis 0 0 0   XYZ
    dof rx ry rz
    limits (-20.0 45.0)
           (-30.0 30.0)
           (-30.0 30.0)
  end
  begin
     id 17 
     name lclavicle
     direction 0.988267 0.149885 0.0293713  
     length 4.47222  
     axis 0 0 0   XYZ
    dof ry rz
    limits (-20.0 10.0)
           (0.0 20.0)
  end
  begin
     id 18 
     name lhumerus
     direction 1 -4.48986e-011 -1.14833e-027   
     length 5.37148   
     axis 180 -30 -90   XYZ
    dof rx ry rz
    limits (-60.0 90.0)
           (-90.0 90.0)
           (-90.0 90.0)
  end
  begin
     id 19
     name lradius
     direction 0.999998 0.00170963 -0.000987055   
     length 3.94212   
     axis 180 -30 -90   XYZ
    dof rx
    limits (-10.0 170.0)
  end
  begin
     id 20
     name lwrist
     direction 0.999998 7.53149e-005 -0.00194706   
     length 1.97106   
     axis 4.65056e-015 90 90   XYZ
    dof ry
    limits (-180.0 0.0)
 end
  begin
     id 21 
     name lhand
     direction 1 -4.48973e-011 -1.31746e-026   
     length 1.17917   
     axis 8.4065e-015 90 90   XYZ
    dof rx rz
    limits (-90.0 90.0)
           (-45.0 45.0)
  end
  begin
     id 22 
     name lfingers
     direction 1 -4.49107e-011 -2.63492e-026   
     length 0.950679   
     axis 1.6813e-014 90 90   XYZ
    dof rx
    limits (0.0 90.0)
  end
  begin
     id 23
     name lthumb
     direction 0.707107 -6.35048e-011 0.707107   
     length 1.36499   
     axis -90 45 2.85299e-015   XYZ
    dof rx rz
    limits (-45.0 45.0)
           (-45.0 45.0)
  end
  begin
     id 24 
     name rclavicle
     direction -0.996699 0.0642895 -0.0495725   
     length 4.62611  
     axis 0 0 0   XYZ 
    dof ry rz
    limits (-10.0 20.0)
           (-20.0 0.0)
  end
  begin
     id 25 
     name rhumerus
     direction -1 -4.48919e-011 -2.41059e-027  
     length 5.4981   
     axis 180 30 90   XYZ
    dof rx ry rz
    limits (-90.0 60.0)
           (-90.0 90.0)
           (-90.0 90.0)
  end
  begin
     id 26 
     name rradius
     direction -0.999999 0.00118101 -0.000681858   
     length 3.48381   
     axis 180 30 90   XYZ
    dof rx
    limits (-10.0 170.0)
  end
  begin
     id 27 
     name rwrist
     direction -0.999999 0.000321823 -0.00132288   
     length 1.7419   
     axis 4.65056e-015 -90 -90   XYZ
    dof ry
    limits (-180.0 0.0)
  end
  begin
     id 28
     name rhand
     direction -1 -4.49022e-011 -1.31746e-026   
     length 1.34932   
     axis 8.4065e-015 -90 -90   XYZ
    dof rx rz
    limits (-90.0 90.0)
           (-45.0 45.0)
  end
  begin
     id 29
     name rfingers
     direction -1 -4.49178e-011 -2.63492e-026   
     length 1.08785   
     axis 1.6813e-014 -90 -90   XYZ
    dof rx
    limits (0.0 90.0)
  end
  begin
     id 30
     name rthumb
     direction -0.707107 -6.34713e-011 0.707107   
     length 1.56195   
     axis -90 -45 -2.85299e-015   XYZ
    dof rx rz
    limits (-45.0 45.0)
           (-45.0 45.0)
  end
:hierarchy
  begin
    root lhipjoint rhipjoint lowerback
    lhipjoint lfemur
    lfemur ltibia
    ltibia lfoot
    lfoot ltoes
    rhipjoint rfemur
    rfemur rtibia
    rtibia rfoot
    rfoot rtoes
    lowerback upperback
    upperback thorax
    thorax lowerneck lclavicle rclavicle
    lowerneck upperneck
    upperneck head
    lclavicle lhumerus
    lhumerus lradius
    lradius lwrist
    lwrist lhand lthumb
    lhand lfingers
    rclavicle rhumerus
    rhumerus rradius
    rradius rwrist
    rwrist rhand rthumb
    rhand rfingers
  end

#!OML:ASF X:\für Bonn\!DataBase\2005_08_10_Bjorn_Final\c3d\bjorn.ASF
:FULLY-SPECIFIED
:DEGREES
1
root -21.9967 19.447 0.692858 -3.48116 -86.7401 10.1554
lowerback -11.0035 1.40795 -0.740871
upperback 5.07471 2.11054 -1.18568
thorax 11.7323 0.989391 -0.432813
lowerneck -3.44127 -2.52594 5.22162
upperneck 6.81532 -3.50849 -3.17119
head 2.62932 -1.72517 -2.0526
rclavicle -3.08613e-014 3.18055e-015
rhumerus -37.0891 -31.1432 -75.4514
rradius 17.1453
rwrist 13.1054
rhand -8.00552 8.06125
rfingers 7.12502
rthumb 17.9035 -21.1347
lclavicle -3.08613e-014 3.18055e-015
lhumerus -34.2744 39.8212 62.4501
lradius 13.5684
lwrist -39.4637
lhand -17.1428 -11.3081
lfingers 7.12502
lthumb 9.09754 18.4757
rfemur -12.9919 -14.9289 15.7029
rtibia 24.7475
rfoot -11.1347 18.3769
rtoes 0.326997
lfemur -12.8376 17.6761 -17.5072
ltibia 23.8392
lfoot -8.03736 -20.1726
ltoes 1.29757
2
root -22.0001 19.4475 0.691611 -3.32792 -86.6872 10.0233
lowerback -11.0303 1.37343 -0.758663
upperback 5.0703 2.06415 -1.15324
thorax 11.7411 0.964491 -0.396631
lowerneck -3.41269 -2.4978 5.29477
upperneck 6.74322 -3.46813 -3.25382
head 2.5999 -1.70624 -2.08971
rclavicle 2.94698e-014 -1.49089e-014
rhumerus -37.039 -32.0454 -74.9217
rradius 16.4841
rwrist 15.5321
rhand -8.29309 7.45933
rfingers 7.12502
rthumb 17.6268 -21.7617
lclavicle 2.94698e-014 -1.49089e-014
lhumerus -35.6903 42.0496 60.4841
lradius 13.229
lwrist -44.6491
lhand -17.9999 -11.4306
lfingers 7.12502
lthumb 8.27039 18.3875
rfemur -12.9952 -14.9723 15.7124
rtibia 24.7434
rfoot -11.1491 18.3693
rtoes 0.326359
lfemur -12.8575 17.6038 -17.5086
ltibia 23.8423
lfoot -8.04628 -20.1345
ltoes 1.32891
3
root -22.0033 19.4471 0.69054 -3.44925 -86.6491 10.1535
lowerback -11.041 1.35743 -0.760296
upperback 5.06423 2.0431 -1.15341
thorax 11.7405 0.95442 -0.400102
lowerneck -3.40307 -2.48606 5.41181
upperneck 6.6987 -3.45366 -3.33199
head 2.58168 -1.69881 -2.13509
rclavicle -3.57315e-014 7.35503e-015
rhumerus -37.0518 -33.0572 -74.3306
rradius 15.8023
rwrist 18.1567
rhand -8.64264 6.88954
rfingers 7.12502
rthumb 17.2904 -22.3613
lclavicle -3.57315e-014 7.35503e-015
lhumerus -37.3141 44.3394 58.2412
lradius 12.8455
lwrist -50.9298
lhand -19.1787 -11.2109
lfingers 7.12502
lthumb 7.13264 18.6489
rfemur -12.9889 -15.0372 15.7016
rtibia 24.7394
rfoot -11.1445 18.3994
rtoes 0.349541
lfemur -12.8625 17.5459 -17.5215
ltibia 23.8494
lfoot -8.06846 -20.0869
ltoes 1.25417
4
root -22.0064 19.4479 0.688911 -3.53891 -86.5878 10.2811
lowerback -11.0872 1.32025 -0.793754
upperback 5.05591 1.99804 -1.1413
thorax 11.757 0.929827 -0.37657
lowerneck -3.37272 -2.46307 5.50486
upperneck 6.62852 -3.42228 -3.40045
head 2.55229 -1.68338 -2.17146
rclavicle -1.22253e-014 2.44505e-014
rhumerus -37.1233 -34.2037 -73.6058
rradius 15.1277
rwrist 20.965
rhand -9.04304 6.38827
rfingers 7.12502
rthumb 16.905 -22.896
lclavicle -1.22253e-014 2.44505e-014
lhumerus -39.2078 46.6914 55.7422
lradius 12.4982
lwrist -57.7571
lhand -20.3171 -10.7717
lfingers 7.12502
lthumb 6.0337 19.1224
rfemur -13.0013 -14.9885 15.7005
rtibia 24.7342
rfoot -11.2067 18.2927
rtoes 0.285623
lfemur -12.9051 17.4665 -17.541
ltibia 23.8563
lfoot -8.0653 -20.063
ltoes 1.32884
5
root -22.0095 19.4471 0.687144 -3.42404 -86.5434 10.1864
lowerback -11.1109 1.28758 -0.815543
upperback 5.04816 1.95683 -1.12987
thorax 11.7611 0.90807 -0.36006
lowerneck -3.36614 -2.44116 5.64006
upperneck 6.58198 -3.39356 -3.50809
head 2.53429 -1.66936 -2.22978
rclavicle -1.17283e-014 -8.94531e-015
rhumerus -37.2429 -35.3376 -72.8732
rradius 14.5146
rwrist 23.7147
rhand -9.57534 6.08029
rfingers 7.12502
rthumb 16.3926 -23.247
lclavicle -1.17283e-014 -8.94531e-015
lhumerus -41.7171 49.407 52.4745
lradius 12.2099
lwrist -65.4036
lhand -21.196 -10.3893
lfingers 7.12502
lthumb 5.18511 19.5273
rfemur -13.006 -15.0174 15.7108
rtibia 24.73
rfoot -11.216 18.2821
rtoes 0.317268
lfemur -12.926 17.4033 -17.5414
ltibia 23.8633
lfoot -8.0674 -20.0289
ltoes 1.38033
6
root -22.0133 19.4469 0.686414 -3.31912 -86.5051 10.1027
lowerback -11.1501 1.2571 -0.822446
upperback 5.04602 1.9174 -1.12705
thorax 11.7818 0.888568 -0.360586
lowerneck -3.3462 -2.41697 5.75342
upperneck 6.51521 -3.36159 -3.58803
head 2.50787 -1.6535 -2.27416
rclavicle -3.97569e-015 3.77691e-015
rhumerus -37.465 -36.5875 -72.0394
rradius 13.9742
rwrist 26.4494
rhand -10.1653 6.0053
rfingers 7.12502
rthumb 15.8245 -23.368
lclavicle -3.97569e-015 3.77691e-015
lhumerus -45.0438 52.4563 48.1892
lradius 11.9893
lwrist -73.5838
lhand -21.6859 -10.2805
lfingers 7.12502
lthumb 4.71209 19.6471
rfemur -13.007 -15.0061 15.7177
rtibia 24.7244
rfoot -11.2478 18.2354
rtoes 0.294004
lfemur -12.9404 17.3449 -17.5431
ltibia 23.8708
lfoot -8.10665 -19.9838
ltoes 1.31147
7
root -22.0167 19.4473 0.68494 -3.20215 -86.453 10.0079
lowerback -11.1869 1.22882 -0.833216
upperback 5.04316 1.8832 -1.1409
thorax 11.8009 0.872022 -0.37607
lowerneck -3.32731 -2.39805 5.94318
upperneck 6.45299 -3.33954 -3.69407
head 2.48169 -1.64149 -2.34161
rclavicle -1.68967e-015 1.27222e-014
rhumerus -37.6652 -37.6261 -71.3929
rradius 13.5855
rwrist 28.698
rhand -10.6646 5.83905
rfingers 7.12502
rthumb 15.3436 -23.5717
lclavicle -1.68967e-015 1.27222e-014
lhumerus -49.0975 55.4366 43.0948
lradius 11.8583
lwrist -81.5719
lhand -21.9075 -10.4033
lfingers 7.12502
lthumb 4.49806 19.5289
rfemur -13.015 -15.0457 15.7275
rtibia 24.7264
rfoot -11.2528 18.2244
rtoes 0.384117
lfemur -12.9631 17.2754 -17.541
ltibia 23.8774
lfoot -8.10572 -19.963
ltoes 1.37216
8
root -22.0206 19.4471 0.683707 -3.108 -86.415 9.93495
lowerback -11.2264 1.19103 -0.868738
upperback 5.04 1.83812 -1.13407
thorax 11.8196 0.847444 -0.357404
lowerneck -3.2811 -2.36787 6.06793
upperneck 6.37218 -3.29844 -3.78044
head 2.44625 -1.62102 -2.38926
rclavicle -2.06736e-014 1.66979e-014
rhumerus -37.8524 -38.4906 -70.8214
rradius 13.3332
rwrist 30.4411
rhand -11.0485 5.68587
rfingers 7.12502
rthumb 14.9738 -23.7528
lclavicle -2.06736e-014 1.66979e-014
lhumerus -53.4048 57.8743 37.9149
lradius 11.7864
lwrist -88.5633
lhand -22.008 -10.518
lfingers 7.12502
lthumb 4.40106 19.4162
rfemur -13.0201 -15.0183 15.736
rtibia 24.7302
rfoot -11.297 18.1634
rtoes 0.351295
lfemur -12.9787 17.2196 -17.5426
ltibia 23.8792
lfoot -8.11157 -19.9299
ltoes 1.37007
9
root -22.0245 19.4467 0.682666 -3.4869 -86.3906 10.3316
lowerback -11.2664 1.15793 -0.928879
upperback 5.04428 1.80423 -1.13592
thorax 11.8467 0.826529 -0.331955
lowerneck -3.26338 -2.34471 6.19069
upperneck 6.29621 -3.26746 -3.87754
head 2.41718 -1.60604 -2.44134
rclavicle 1.49089e-016 -7.95139e-016
rhumerus -37.9477 -39.0991 -70.4534
rradius 13.207
rwrist 31.5638
rhand -11.3203 5.55068
rfingers 7.12502
rthumb 14.7119 -23.9073
lclavicle 1.49089e-016 -7.95139e-016
lhumerus -57.2269 59.5983 33.4513
lradius 11.7231
lwrist -93.8974
lhand -21.9119 -10.5709
lfingers 7.12502
lthumb 4.49382 19.3614
rfemur -13.0296 -15.0918 15.7136
rtibia 24.7359
rfoot -11.3017 18.1895
rtoes 0.246287
lfemur -12.9873 17.1766 -17.575
ltibia 23.8817
lfoot -8.14068 -19.8969
ltoes 1.33204
10
root -22.0282 19.4466 0.681684 -3.38303 -86.3451 10.2563
lowerback -11.317 1.12742 -0.95404
upperback 5.04093 1.76981 -1.15074
thorax 11.8733 0.808761 -0.340315
lowerneck -3.2498 -2.32493 6.37227
upperneck 6.24708 -3.24423 -3.98098
head 2.39688 -1.59353 -2.50737
rclavicle -1.17283e-014 1.2921e-014
rhumerus -38.0967 -39.8049 -70.0461
rradius 13.1414
rwrist 32.1783
rhand -11.4499 5.58882
rfingers 7.12502
rthumb 14.587 -23.8782
lclavicle -1.17283e-014 1.2921e-014
lhumerus -60.4153 60.7535 29.7676
lradius 11.6439
lwrist -97.6736
lhand -21.7473 -10.6334
lfingers 7.12502
lthumb 4.65278 19.2955
rfemur -13.0418 -15.0785 15.7227
rtibia 24.7437
rfoot -11.3473 18.1356
rtoes 0.216524
lfemur -13.0125 17.1133 -17.5768
ltibia 23.8817
lfoot -8.13212 -19.8768
ltoes 1.4157
11
root -22.0326 19.4461 0.680622 -3.32473 -86.3229 10.2122
lowerback -11.3616 1.08695 -1.00785
upperback 5.04461 1.72365 -1.13762
thorax 11.9022 0.781825 -0.304745
lowerneck -3.22891 -2.30153 6.47781
upperneck 6.18037 -3.2119 -4.07756
head 2.37075 -1.5782 -2.55652
rclavicle 9.24349e-015 6.16232e-015
rhumerus -38.1595 -40.3384 -69.7372
rradius 13.1449
rwrist 31.9195
rhand -11.4684 5.83503
rfingers 7.12502
rthumb 14.5693 -23.6333
lclavicle 9.24349e-015 6.16232e-015
lhumerus -63.9492 61.7841 25.7823
lradius 11.4996
lwrist -100.524
lhand -21.7074 -10.9816
lfingers 7.12502
lthumb 4.69134 18.9465
rfemur -13.0422 -15.0484 15.7278
rtibia 24.7526
rfoot -11.3894 18.089
rtoes 0.190318
lfemur -13.0155 17.0725 -17.576
ltibia 23.8823
lfoot -8.16827 -19.8498
ltoes 1.33438
12
root -22.0367 19.4458 0.679404 -3.25104 -86.2922 10.1604
lowerback -11.4179 1.05838 -1.04888
upperback 5.05201 1.69412 -1.14726
thorax 11.9439 0.764704 -0.297447
lowerneck -3.22136 -2.29061 6.61237
upperneck 6.10043 -3.19976 -4.15627
head 2.34148 -1.57188 -2.60556
rclavicle -1.48095e-014 1.94809e-014
rhumerus -38.1262 -40.6098 -69.7148
rradius 13.2869
rwrist 30.897
rhand -11.6825 6.12394
rfingers 7.12502
rthumb 14.3629 -23.3592
lclavicle -1.48095e-014 1.94809e-014
lhumerus -67.0073 62.5107 22.3286
lradius 11.3816
lwrist -102.493
lhand -21.584 -11.4556
lfingers 7.12502
lthumb 4.81042 18.4698
rfemur -13.0515 -15.079 15.7355
rtibia 24.7563
rfoot -11.3919 18.0905
rtoes 0.28551
lfemur -13.0302 17.0236 -17.5742
ltibia 23.8844
lfoot -8.14852 -19.8303
ltoes 1.43546
13
root -22.0409 19.4454 0.678359 -3.20017 -86.2761 10.1248
lowerback -11.4693 1.02544 -1.09321
upperback 5.05914 1.65847 -1.15007
thorax 11.9819 0.744127 -0.282305
lowerneck -3.19991 -2.27972 6.69448
upperneck 6.01697 -3.18543 -4.21019
head 2.30936 -1.56496 -2.63617
rclavicle -2.03754e-015 2.22639e-014
rhumerus -37.9448 -40.418 -70.0326
rradius 13.6493
rwrist 29.4346
rhand -11.7349 6.43797
rfingers 7.12502
rthumb 14.3125 -23.0487
lclavicle -2.03754e-015 2.22639e-014
lhumerus -67.9391 62.5476 21.3456
lradius 11.3351
lwrist -102.603
lhand -21.2811 -12.0323
lfingers 7.12502
lthumb 5.10295 17.8863
rfemur -13.052 -15.0515 15.7416
rtibia 24.7584
rfoot -11.4259 18.0509
rtoes 0.198174
lfemur -13.0366 16.989 -17.5737
ltibia 23.8885
lfoot -8.17743 -19.7999
ltoes 1.39756
14
root -22.0452 19.445 0.677696 -3.148 -86.2548 10.0942
lowerback -11.5226 0.996004 -1.1329
upperback 5.05182 1.62773 -1.16137
thorax 12.0052 0.726849 -0.278035
lowerneck -3.16624 -2.27392 6.77576
upperneck 5.96045 -3.17788 -4.25091
head 2.28372 -1.56079 -2.66266
rclavicle -1.36664e-014 -4.77083e-015
rhumerus -37.5546 -39.4748 -70.9442
rradius 14.3283
rwrist 27.3866
rhand -11.7928 6.52883
rfingers 7.12502
rthumb 14.2567 -22.9618
lclavicle -1.36664e-014 -4.77083e-015
lhumerus -66.9147 62.0196 22.5897
lradius 11.3442
lwrist -101.351
lhand -20.8652 -12.5858
lfingers 7.12502
lthumb 5.50455 17.3228
rfemur -13.0555 -15.0413 15.7464
rtibia 24.7613
rfoot -11.443 18.0238
rtoes 0.195391
lfemur -13.0491 16.9489 -17.5734
ltibia 23.891
lfoot -8.17649 -19.7815
ltoes 1.47888
15
root -22.0497 19.4453 0.676285 -3.31456 -86.2454 10.2769
lowerback -11.576 0.965432 -1.2015
upperback 5.04809 1.59997 -1.16989
thorax 12.0318 0.708504 -0.253834
lowerneck -3.0853 -2.27366 6.83416
upperneck 5.85096 -3.17373 -4.29096
head 2.23181 -1.55899 -2.6824
rclavicle -1.47598e-014 -1.03368e-014
rhumerus -36.981 -37.7462 -72.4154
rradius 15.3635
rwrist 24.6939
rhand -11.9012 6.3684
rfingers 7.12502
rthumb 14.1522 -23.1296
lclavicle -1.47598e-014 -1.03368e-014
lhumerus -64.356 60.9861 25.6435
lradius 11.4141
lwrist -99.1294
lhand -20.3122 -12.8186
lfingers 7.12502
lthumb 6.03836 17.0754
rfemur -13.0557 -15.006 15.7384
rtibia 24.7631
rfoot -11.478 17.9839
rtoes 0.189332
lfemur -13.0535 16.9213 -17.5867
ltibia 23.8952
lfoot -8.21042 -19.7489
ltoes 1.42386
